<svg enable-background="new 0 0 100 50" viewBox="0 0 100 50" xmlns="http://www.w3.org/2000/svg" xmlns:xlink="http://www.w3.org/1999/xlink"><clipPath id="a"><path d="m14.28 13.66h70.87v19.27h-70.87z"/></clipPath><clipPath id="b"><path d="m14.36 13.81h70.71v18.99h-70.71z"/></clipPath><path d="m0 0h100v50h-100z" fill="#ff671f"/><g fill="#fff"><path clip-path="url(#a)" d="m20.85 25.24-.67-5.46c-.03-.25-.2-.48-.46-.57-.26-.09-.53-.02-.72.16l-3.95 3.83c-.08.08-.15.17-.19.29-.13.37.06.77.43.89.08.03.15.04.23.04h.63l.66-.01c.03 0 .05 0 .08.01.12.04.18.17.14.29l-.22.62-2.45 6.93h.5l2.6-7.38c0-.01.01-.01.01-.02.13-.36-.06-.77-.43-.89-.08-.03-.16-.04-.24-.04l-.62.01h-.31-.35c-.03 0-.05 0-.08-.01-.12-.04-.18-.17-.14-.29.01-.04.04-.07.07-.1l.47-.45 2.98-2.9.51-.5c.06-.06.15-.08.23-.05.08.03.14.1.15.19l.09.7.51 4.13.08.64c.01.04 0 .08-.01.12-.04.12-.17.18-.29.14-.03-.01-.05-.02-.07-.04l-.27-.22-.24-.19-.48-.39c-.06-.05-.13-.09-.21-.12-.36-.13-.77.06-.89.43 0 .01 0 .01-.01.02l-2.55 7.22h.5l2.28-6.46.22-.62c.04-.12.17-.18.29-.14.03.01.05.02.07.04l.51.42.49.4c.06.05.13.09.2.12.36.13.77-.06.89-.43.04-.13.05-.25.03-.36"/><path clip-path="url(#a)" d="m35.38 32.27h5.36l6.24-17.57h-5.38z"/><path clip-path="url(#a)" d="m56.83 32.27h5.31l2.77-7.74c1.11-1.86 3.33-1.44 2.92.19l-2.66 7.55h5.55l2.63-7.38c.7-1.85 3.61-1.97 2.97.22l-2.47 7.16h5.36l3-8.49c1-2.89-2.53-6.75-8.6-2.5-.72-1.94-3.71-3.16-7.71-.33l.27-1.15h-4.98z"/><path clip-path="url(#a)" d="m82.3 14.93c.16-.55.67-.96 1.28-.96.73 0 1.33.6 1.33 1.33 0 .74-.6 1.33-1.33 1.33-.74 0-1.34-.59-1.34-1.33-.01-.13.01-.25.06-.37l-.15-.07c-.04.14-.07.29-.07.44 0 .83.66 1.5 1.5 1.5.82 0 1.5-.67 1.5-1.5 0-.82-.68-1.5-1.5-1.5-.68 0-1.24.44-1.43 1.06z"/><path clip-path="url(#b)" d="m83.31 15.27h-.05v-.45h.62c.28.08.16.45-.05.45h-.52v.16h.37c.46.06.23.49.34.62h.16c-.12-.17.09-.5-.21-.65.4-.18.23-.74-.14-.73h-.73v1.38h.14v-.61h.07z"/><path clip-path="url(#b)" d="m51.38 19.78h-5.03l-2.96 8.3c-1.48 4.69 3.24 6.24 7.73 3l-.3 1.19h4.79l4.42-12.47h-5.13l-2.62 7.12c-.61 1.74-4.02 2.72-3.5.05z"/><path clip-path="url(#b)" d="m29.14 20.44 2-5.77h-5.38l-6.18 17.59h5.05l.58-1.39c.31 2.11 7.27 3.88 10.98-3.61 2.91-5.4-.42-10.76-7.05-6.82m1.83 6.69c-1 1.23-2.6 1.85-3.52 1.24-1-.67-.94-2.19.06-3.63.24-.36.5-.67.78-.92.94-.89 2.02-1.18 2.89-.61 1.01.67.84 2.61-.21 3.92"/></g></svg>