<svg id="Layer_1" data-name="Layer 1" xmlns="http://www.w3.org/2000/svg" viewBox="0 0 685 157.55"><title>Egger logo - Brandlogos.net</title><g id="g8"><g id="g10"><path id="path12" d="M193.29,305.22H720.45v53.43H193.29V305.22h0" transform="translate(-41.5 -305.22)" style="fill:#da1737"/><path id="path14" d="M193.29,413.28v49.49h93.87s0-9.56,0-10.54a1.25,1.25,0,0,0-1.37-1.35c-.74,0-61.49,0-61.49,0l0-17.7h53.3V422.79a1.25,1.25,0,0,0-1.38-1.38H224.34v-18.1h62.81V392.78c0-1-.61-1.24-1.37-1.24H214.89a21.65,21.65,0,0,0-21.61,21.75h0" transform="translate(-41.5 -305.22)" style="fill:#231f20"/><path id="path16" d="M321.51,391.54H393.2c.89,0,1.4.34,1.4,1.25v10.51H330.86v46.48h51.45V433.17H350.49v-10.4a1.33,1.33,0,0,1,1.43-1.34l41.27,0a1.43,1.43,0,0,1,1.41,1.38v40H299.87V413.28a21.7,21.7,0,0,1,21.64-21.75h0" transform="translate(-41.5 -305.22)" style="fill:#231f20"/><path id="path18" d="M430.6,391.54H502.3c.88,0,1.39.34,1.39,1.25v10.51H440v46.48H491.4V433.17H459.59s0-9.66,0-10.38a1.31,1.31,0,0,1,1.4-1.36l41.28,0a1.43,1.43,0,0,1,1.4,1.38v40H409v-49.5a21.69,21.69,0,0,1,21.64-21.74h0" transform="translate(-41.5 -305.22)" style="fill:#231f20"/><path id="path20" d="M518.13,413.28v49.49H612V452.24a1.25,1.25,0,0,0-1.37-1.35c-.73,0-61.5,0-61.5,0l0-17.71h53.3V422.79a1.24,1.24,0,0,0-1.37-1.39H549.17v-18.1H612V392.77c0-1-.61-1.24-1.37-1.24h-70.9a21.65,21.65,0,0,0-21.6,21.75h0" transform="translate(-41.5 -305.22)" style="fill:#231f20"/><path id="path22" d="M41.5,391.54H144.89v13.29H90v15.55h54.91v13.72H90.23v15.45h54.66v13.23H41.5V391.54h0" transform="translate(-41.5 -305.22)" style="fill:#da1737"/><path id="path24" d="M701.74,391.54c10.33,0,18.7,10.44,18.7,20.81s-8.42,20.82-18.77,20.82h-8.43l31.91,27.08s3.16,2.53-.18,2.53H691c-1.41,0-2.07-.82-3.49-2,1.13.76-31.91-27.63-31.91-27.63v29.6h-31V413.28a21.65,21.65,0,0,1,21.58-21.74h55.48Zm-4.25,29.93c3.31,0,8-3.42,8-9.08,0-6.27-4.43-9-8-9H655.64v18.13l41.84,0h0v0" transform="translate(-41.5 -305.22)" style="fill:#231f20"/></g></g></svg>