<?xml version="1.0" encoding="UTF-8" standalone="no"?>
<!-- Created with Inkscape (http://www.inkscape.org/) -->

<svg
   width="145.09088mm"
   height="90.501389mm"
   viewBox="0 0 145.09088 90.501389"
   version="1.1"
   id="svg2445"
   inkscape:version="1.1.2 (0a00cf5339, 2022-02-04)"
   sodipodi:docname="Logo of Hettich (company).svg"
   xmlns:inkscape="http://www.inkscape.org/namespaces/inkscape"
   xmlns:sodipodi="http://sodipodi.sourceforge.net/DTD/sodipodi-0.dtd"
   xmlns="http://www.w3.org/2000/svg"
   xmlns:svg="http://www.w3.org/2000/svg">
  <sodipodi:namedview
     id="namedview2447"
     pagecolor="#ffffff"
     bordercolor="#666666"
     borderopacity="1.0"
     inkscape:pageshadow="2"
     inkscape:pageopacity="0.0"
     inkscape:pagecheckerboard="0"
     inkscape:document-units="mm"
     showgrid="false"
     inkscape:zoom="0.64052329"
     inkscape:cx="-350.49467"
     inkscape:cy="208.42334"
     inkscape:window-width="3770"
     inkscape:window-height="2096"
     inkscape:window-x="1990"
     inkscape:window-y="27"
     inkscape:window-maximized="1"
     inkscape:current-layer="layer1"
     fit-margin-top="0"
     fit-margin-left="0"
     fit-margin-right="0"
     fit-margin-bottom="0" />
  <defs
     id="defs2442" />
  <g
     inkscape:label="Layer 1"
     inkscape:groupmode="layer"
     id="layer1"
     transform="translate(-55.721439,-93.515207)">
    <g
       id="g2326"
       transform="matrix(5.1082941,0,0,-5.1082941,-845.67077,227.4557)">
      <g
         id="g46"
         transform="translate(193.9795,14.4689)">
        <path
           d="M 0,0 7.986,4.611 V 5.952 L 0,1.342 Z"
           style="fill:#e30613;fill-opacity:1;fill-rule:nonzero;stroke:none"
           id="path48" />
      </g>
      <g
         id="g50"
         transform="translate(193.9795,20.2682)">
        <path
           d="M 0,0 7.986,4.611 V 5.952 L 0,1.342 Z"
           style="fill:#00569d;fill-opacity:1;fill-rule:nonzero;stroke:none"
           id="path52" />
      </g>
      <g
         id="g54"
         transform="translate(180.3336,8.6287)">
        <path
           d="M 0,0 V 2.985 H -2.333 V 0 h -1.393 -0.151 v 7.254 h 1.544 V 4.217 H 0 V 7.254 H 1.544 V 0 Z m 21.631,2.592 c 0,0.432 0.094,0.843 0.28,1.233 0.087,0.164 0.199,0.312 0.339,0.434 0.088,0.078 0.183,0.128 0.29,0.15 0.161,0.033 0.335,0.028 0.407,-0.142 0.02,-0.045 0.031,-0.095 0.04,-0.14 0.05,-0.246 0.052,-0.705 0.052,-0.878 V 0 h 1.487 V 3.842 C 24.52,4.346 24.422,4.895 24.07,5.277 23.785,5.592 23.431,5.736 23.052,5.741 22.441,5.749 21.802,5.371 21.631,4.781 V 8.108 L 20.152,7.254 V 0 h 1.479 z M 2.295,1.037 c -0.16,0.266 -0.279,0.572 -0.359,0.915 -0.08,0.344 -0.12,0.724 -0.12,1.139 0,0.257 0.018,0.519 0.064,0.775 0.041,0.225 0.104,0.447 0.196,0.656 0.11,0.249 0.263,0.479 0.46,0.666 0.227,0.215 0.51,0.374 0.847,0.465 0.226,0.062 0.477,0.094 0.751,0.093 0.2,10e-4 0.4,-0.02 0.595,-0.067 C 4.972,5.62 5.189,5.523 5.375,5.391 5.598,5.233 5.776,5.025 5.906,4.785 6.064,4.496 6.158,4.155 6.192,3.775 6.208,3.598 6.207,3.421 6.207,3.243 V 2.985 H 4.712 3.218 C 3.237,2.749 3.291,2.509 3.375,2.282 3.45,2.083 3.55,1.888 3.678,1.714 3.805,1.54 3.96,1.387 4.144,1.273 4.391,1.12 4.672,1.05 4.962,1.05 5.271,1.049 5.589,1.135 5.877,1.242 L 6.079,1.317 V 0.132 L 5.977,0.098 C 5.702,0.003 5.417,-0.059 5.108,-0.093 4.916,-0.114 4.719,-0.126 4.521,-0.125 4.324,-0.123 4.127,-0.108 3.937,-0.074 3.728,-0.037 3.531,0.022 3.349,0.101 3.166,0.181 2.999,0.281 2.847,0.401 2.625,0.577 2.44,0.795 2.295,1.037 M 4.779,4.035 C 4.771,4.086 4.758,4.14 4.741,4.192 4.697,4.323 4.622,4.44 4.509,4.522 4.457,4.559 4.395,4.591 4.318,4.613 4.111,4.674 3.863,4.666 3.672,4.564 3.526,4.486 3.415,4.356 3.343,4.209 3.314,4.151 3.292,4.091 3.276,4.035 Z M 8.554,4.461 V 2.096 C 8.554,1.982 8.556,1.873 8.564,1.771 8.577,1.608 8.603,1.423 8.69,1.281 8.76,1.166 8.865,1.101 8.993,1.072 9.142,1.037 9.303,1.048 9.451,1.076 9.6,1.103 9.747,1.146 9.892,1.184 V -0.009 L 9.768,-0.031 C 9.6,-0.061 9.429,-0.084 9.257,-0.1 9.089,-0.115 8.917,-0.125 8.746,-0.124 8.574,-0.122 8.403,-0.11 8.237,-0.08 8.003,-0.039 7.772,0.039 7.579,0.181 7.42,0.298 7.3,0.451 7.219,0.632 7.172,0.738 7.139,0.85 7.117,0.966 7.07,1.207 7.074,1.451 7.074,1.695 V 4.461 H 6.086 V 5.623 H 7.074 V 7.254 L 8.553,8.108 8.554,5.623 h 1.868 v 1.631 l 1.479,0.854 10e-4,-2.485 h 1.495 V 4.461 H 11.902 V 2.096 c 0,-0.114 0.003,-0.223 0.011,-0.325 0.012,-0.163 0.039,-0.348 0.126,-0.49 0.07,-0.115 0.174,-0.18 0.302,-0.209 0.149,-0.035 0.31,-0.024 0.459,0.004 0.148,0.027 0.295,0.07 0.441,0.108 v -1.193 l -0.125,-0.022 c -0.168,-0.03 -0.339,-0.053 -0.511,-0.069 -0.167,-0.015 -0.339,-0.025 -0.511,-0.024 -0.172,0.002 -0.343,0.014 -0.509,0.044 -0.234,0.041 -0.465,0.119 -0.658,0.261 -0.159,0.117 -0.279,0.27 -0.36,0.451 -0.047,0.106 -0.08,0.218 -0.102,0.334 -0.046,0.241 -0.043,0.485 -0.043,0.729 V 4.461 Z M 13.796,0 h -0.15 v 5.623 h 1.48 V 0 Z m 2.044,1.091 c -0.155,0.257 -0.275,0.558 -0.354,0.902 -0.061,0.27 -0.099,0.559 -0.109,0.849 -0.01,0.29 0.006,0.581 0.052,0.857 0.042,0.254 0.112,0.497 0.211,0.721 0.137,0.309 0.335,0.589 0.596,0.806 0.268,0.224 0.604,0.386 1.006,0.465 0.382,0.075 0.815,0.077 1.197,0 0.3,-0.061 0.549,-0.17 0.75,-0.316 C 19.442,5.191 19.626,4.94 19.743,4.651 19.854,4.375 19.902,4.072 19.914,3.77 19.917,3.68 19.916,3.59 19.916,3.5 h -1.554 v 0.15 c 0,0.079 -0.003,0.158 -0.011,0.235 -0.016,0.157 -0.05,0.327 -0.138,0.462 C 18.14,4.46 18.036,4.529 17.907,4.557 17.792,4.582 17.661,4.579 17.549,4.546 17.436,4.513 17.338,4.449 17.257,4.363 17.161,4.26 17.093,4.131 17.045,3.999 17.008,3.898 16.98,3.784 16.961,3.663 16.915,3.374 16.924,3.069 16.971,2.782 c 0.026,-0.159 0.065,-0.316 0.118,-0.467 0.132,-0.377 0.356,-0.72 0.687,-0.952 0.18,-0.127 0.394,-0.221 0.649,-0.271 0.244,-0.048 0.502,-0.052 0.749,-0.027 0.182,0.019 0.338,0.056 0.487,0.11 l 0.202,0.074 V 0.164 L 19.759,0.13 c -0.311,-0.101 -0.649,-0.182 -1.006,-0.223 -0.175,-0.02 -0.352,-0.031 -0.53,-0.03 -0.177,0 -0.355,0.012 -0.529,0.038 -0.292,0.043 -0.57,0.122 -0.824,0.242 -0.433,0.205 -0.785,0.525 -1.03,0.934"
           style="fill:#1d1d1b;fill-opacity:1;fill-rule:nonzero;stroke:none"
           id="path56" />
      </g>
      <g
         id="g58"
         transform="translate(193.9795,16.402)">
        <path
           d="M 0,0 7.986,4.611 V 5.952 L 0,1.342 Z"
           style="fill:#f9b000;fill-opacity:1;fill-rule:nonzero;stroke:none"
           id="path60" />
      </g>
      <g
         id="g62"
         transform="translate(193.9795,18.3351)">
        <path
           d="M 0,0 7.986,4.611 V 5.952 L 0,1.342 Z"
           style="fill:#00975f;fill-opacity:1;fill-rule:nonzero;stroke:none"
           id="path64" />
      </g>
    </g>
  </g>
</svg>
