<?xml version="1.0" encoding="UTF-8" standalone="no"?>
<!-- Created with Inkscape (http://www.inkscape.org/) -->
<svg
   xmlns:svg="http://www.w3.org/2000/svg"
   xmlns="http://www.w3.org/2000/svg"
   version="1.0"
   width="645.63483"
   height="114.10253"
   id="svg2941">
  <defs
     id="defs2943" />
  <g
     transform="translate(204.24597,145.72869)"
     id="layer1">
    <path
       d="M -130.76617,-43.455612 C -141.78941,-31.261279 -158.38555,-31.628947 -158.38555,-31.628947 C -179.13498,-31.628947 -189.18458,-44.660747 -189.18458,-44.660747 C -212.68472,-70.050289 -201.66488,-104.46473 -201.66488,-104.46473 C -188.86117,-139.88344 -156.44168,-136.20676 -156.44168,-136.20676 C -114.62281,-136.20676 -112.35211,-100.45442 -112.35211,-100.45442 L -140.54002,-100.4408 C -140.54002,-100.4408 -142.6473,-111.29723 -155.61442,-111.29723 C -155.61442,-111.29723 -174.25657,-113.96963 -174.25657,-84.065943 C -174.25657,-84.065943 -174.73998,-59.176838 -155.77783,-57.004872 C -155.77783,-57.004872 -141.02684,-55.718032 -137.6225,-68.412803 L -149.77939,-68.395782 L -149.77939,-89.764802 L -108.99884,-89.764802 L -108.99884,-34.301351 L -128.61122,-34.301351 L -130.76617,-43.455612"
       id="path137"
       style="fill:#009944;fill-opacity:1;fill-rule:nonzero;stroke:none" />
    <path
       d="M -62.539861,-113.08451 L -62.405648,-113.08451 L -62.405648,-113.21853 L -62.539861,-113.21853 L -62.539861,-113.08451 z"
       id="path139"
       style="fill:#00ae4d;fill-opacity:1;fill-rule:nonzero;stroke:none" />
    <path
       d="M 29.942345,-43.455612 C 18.585478,-31.261279 1.475283,-31.628947 1.475283,-31.628947 C -19.907355,-31.628947 -30.263346,-44.660747 -30.263346,-44.660747 C -54.488605,-70.050289 -43.128334,-104.46473 -43.128334,-104.46473 C -29.929721,-139.88344 3.4838416,-136.20676 3.4838416,-136.20676 C 46.582742,-136.20676 48.921521,-100.45442 48.921521,-100.45442 L 19.868913,-100.4408 C 19.868913,-100.4408 17.700351,-111.29723 4.3315214,-111.29723 C 4.3315214,-111.29723 -14.87915,-113.96963 -14.87915,-84.065943 C -14.87915,-84.065943 -15.379587,-59.176838 4.1681132,-57.004872 C 4.1681132,-57.004872 19.368476,-55.718032 22.878347,-68.412803 L 10.346984,-68.395782 L 10.346984,-89.764802 L 52.380327,-89.764802 L 52.380327,-34.301351 L 32.165377,-34.301351 L 29.942345,-43.455612"
       id="path141"
       style="fill:#009944;fill-opacity:1;fill-rule:nonzero;stroke:none" />
    <path
       d="M 107.92547,-69.383039 C 120.79046,-68.215352 119.95299,-41.651314 119.95299,-41.651314 C 119.95299,-34.801789 123.46286,-34.301351 123.46286,-34.301351 L 154.70446,-34.301351 C 150.19031,-36.973756 150.85756,-42.985814 150.85756,-42.985814 L 149.52306,-58.022768 C 149.35625,-74.561035 135.99082,-80.74331 135.99082,-80.74331 C 151.52481,-89.097552 150.69415,-103.96429 150.69415,-103.96429 C 153.36315,-137.54126 107.59185,-134.70204 107.59185,-134.70204 L 60.983085,-134.70204 L 60.983085,-34.301351 L 91.805937,-34.301351 L 91.822959,-69.383039 L 107.92547,-69.383039 z M 91.891046,-110.6436 L 109.09656,-110.6436 C 109.09656,-110.6436 119.95299,-111.56277 119.95299,-101.4587 C 119.95299,-101.4587 120.95727,-91.769956 108.09228,-91.769956 L 91.891046,-91.769956 L 91.891046,-110.6436"
       id="path143"
       style="fill:#009944;fill-opacity:1;fill-rule:nonzero;stroke:none" />
    <path
       d="M 218.18512,-70.550727 L 208.83001,-98.282452 L 199.47148,-70.550727 L 218.18512,-70.550727 z M 225.53168,-134.70204 L 260.9538,-34.301351 L 230.12413,-34.301351 L 225.53168,-48.334026 L 193.1258,-48.334026 L 188.53335,-34.301351 L 157.71049,-34.301351 L 193.1258,-134.70204 L 225.53168,-134.70204"
       id="path145"
       style="fill:#009944;fill-opacity:1;fill-rule:nonzero;stroke:none" />
    <path
       d="M 342.81107,-105.13538 C 342.81107,-105.13538 344.64942,-136.37357 302.05095,-136.37357 C 302.05095,-136.37357 260.11974,-140.04685 260.11974,-105.13538 C 260.11974,-105.13538 258.61502,-87.422618 279.16019,-79.405406 L 302.7148,-71.721818 C 302.7148,-71.721818 321.59184,-67.71151 313.57463,-59.023643 C 313.57463,-59.023643 307.22895,-53.011585 294.36396,-57.689143 C 294.36396,-57.689143 288.3485,-60.027922 287.84806,-68.37876 L 256.94349,-68.37876 C 256.94349,-68.37876 255.60899,-31.628947 302.7148,-31.628947 C 302.7148,-31.628947 346.81798,-30.624668 346.81798,-66.710635 C 346.81798,-66.710635 348.3261,-88.093273 321.59184,-95.443235 L 297.03636,-102.62979 C 297.03636,-102.62979 290.18684,-103.96429 290.18684,-108.30822 C 290.18684,-108.30822 289.01575,-113.48622 300.37942,-113.48622 C 300.37942,-113.48622 312.57376,-113.15259 312.57376,-105.13538 L 342.81107,-105.13538"
       id="path147"
       style="fill:#009944;fill-opacity:1;fill-rule:nonzero;stroke:none" />
    <path
       d="M 437.36652,-105.13538 C 437.36652,-105.13538 439.20486,-136.37357 396.6064,-136.37357 C 396.6064,-136.37357 354.67178,-140.04685 354.67178,-105.13538 C 354.67178,-105.13538 353.17047,-87.422618 373.71905,-79.405406 L 397.27365,-71.721818 C 397.27365,-71.721818 416.14729,-67.71151 408.12667,-59.023643 C 408.12667,-59.023643 401.78099,-53.011585 388.916,-57.689143 C 388.916,-57.689143 382.90054,-60.027922 382.40351,-68.37876 L 351.49554,-68.37876 C 351.49554,-68.37876 350.16444,-31.628947 397.27365,-31.628947 C 397.27365,-31.628947 441.37342,-30.624668 441.37342,-66.710635 C 441.37342,-66.710635 442.87814,-88.093273 416.14729,-95.443235 L 391.59181,-102.62979 C 391.59181,-102.62979 384.73888,-103.96429 384.73888,-108.30822 C 384.73888,-108.30822 383.57119,-113.48622 394.93147,-113.48622 C 394.93147,-113.48622 407.1292,-113.15259 407.1292,-105.13538 L 437.36652,-105.13538"
       id="path149"
       style="fill:#009944;fill-opacity:1;fill-rule:nonzero;stroke:none" />
    <path
       d="M -127.34141,-56.068679 C -141.1562,-36.973756 -158.38555,-37.97463 -158.38555,-37.97463 C -172.73143,-36.973756 -181.66781,-46.328872 -181.66781,-46.328872 C -207.84375,-72.072465 -194.12768,-105.47581 -194.12768,-105.47581 C -182.75379,-134.36842 -152.8501,-130.27641 -152.8501,-130.27641 C -152.8501,-130.27641 -125.61881,-128.18614 -119.92336,-106.73882 L -134.81052,-106.73882 C -142.4907,-118.93316 -156.52678,-117.49312 -156.52678,-117.49312 C -181.5861,-117.49312 -180.74864,-83.916152 -180.74864,-83.916152 C -180.74864,-49.001276 -153.01691,-50.672806 -153.01691,-50.672806 C -129.2955,-52.340931 -130.36446,-74.89466 -130.36446,-74.89466 L -143.32817,-74.89466 L -143.32817,-83.289754 L -115.42963,-83.289754 L -115.42963,-40.749165 L -123.67834,-40.749165 L -127.34141,-56.068679"
       id="path151"
       style="fill:#ffffff;fill-opacity:1;fill-rule:nonzero;stroke:none" />
    <path
       d="M -84.940395,-93.271269 C -82.01607,-93.271269 -79.646652,-95.644091 -79.646652,-98.565012 L -79.646652,-140.43495 C -79.646652,-143.35587 -82.01607,-145.72869 -84.940395,-145.72869 C -87.86472,-145.72869 -90.237543,-143.35587 -90.237543,-140.43495 L -90.237543,-98.565012 C -90.237543,-95.644091 -87.86472,-93.271269 -84.940395,-93.271269"
       id="path153"
       style="fill:#009944;fill-opacity:1;fill-rule:nonzero;stroke:none" />
    <path
       d="M -62.001976,-106.78648 C -60.582367,-109.34314 -61.508347,-112.56705 -64.065004,-113.98325 L -100.68545,-134.27991 C -103.24211,-135.69611 -106.46602,-134.77354 -107.88222,-132.21347 C -109.29842,-129.65682 -108.37585,-126.43291 -105.81919,-125.01671 L -69.198743,-104.72005 C -66.642086,-103.30385 -63.41818,-104.22642 -62.001976,-106.78648"
       id="path155"
       style="fill:#009944;fill-opacity:1;fill-rule:nonzero;stroke:none" />
    <path
       d="M -107.88222,-106.78648 C -109.29842,-109.34314 -108.37585,-112.56705 -105.81579,-113.98325 L -69.198743,-134.27991 C -66.642086,-135.69611 -63.41818,-134.77354 -62.001976,-132.21347 C -60.582367,-129.65682 -61.508347,-126.43291 -64.065004,-125.01671 L -100.68545,-104.72005 C -103.24211,-103.30385 -106.46261,-104.22642 -107.88222,-106.78648"
       id="path157"
       style="fill:#009944;fill-opacity:1;fill-rule:nonzero;stroke:none" />
  </g>
</svg>
