<?xml version="1.0" encoding="UTF-8"?>
<svg id="Vrstva_1" xmlns="http://www.w3.org/2000/svg" version="1.1" viewBox="0 0 1366 268.07">
  <!-- Generator: Adobe Illustrator 30.1.0, SVG Export Plug-In . SVG Version: 2.1.1 Build 136)  -->
  <defs>
    <style>
      .st0 {
        fill: #de371f;
      }

      .st1 {
        fill: #00705a;
      }

      .st2 {
        fill: #fff;
      }
    </style>
  </defs>
  <path class="st1" d="M763.32,205.12l-1.43-27.96c-.39-7.57-6.92-15.71-14.56-15.67l-41.64.21-.02,43.28-58.3.05V57.75s137.45.82,137.45.82c9.69.06,19.32,5.01,27.16,8.4,10.88,9.45,14.96,21.71,13.22,36.17-1.45,12.04-7.9,24.25-21.53,31.05,12.74,6.86,21.49,16.23,21.5,30.12l.05,40.62-61.9.19ZM762.21,106.65c-.97-4.23-6.3-10.19-11.53-10.24l-44.63-.44.03,24.64c11.72-1.46,60.85,6.69,56.13-13.97Z"/>
  <path class="st1" d="M236.79,168.77c-9.64,39.49-66.45,40.27-99.16,40.37-31.16.1-85.9-5.12-85.13-48.65l60.16-.75c7.16-.09,7.48,1.26,13,6.09,10.31,9.02,30.04,7.92,41.73,1.22,3.02-1.73,1.5-8.08-.12-9.88-2.01-2.24-6.09-4.42-9.78-4.96l-23.52-3.41c-17.11-2.48-34.14-3.02-50.45-8.46-19.17-6.39-31.91-22.56-30.69-42.03,1.25-20.03,15.1-32.97,34.54-38.92,17.62-5.39,35.41-4.13,54.39-4.36,23.1-.27,45.67-.33,66.05,10.58,13.75,7.36,24.03,19.74,22.95,35.81l-64.13-.09c-7.62-18.58-47.94-17.16-50.01-5.83-.6,3.29,2.43,7.71,6.31,8.3l54.42,8.33c17.3,2.65,35.18,4.24,48.77,15.96,11.52,9.94,14.17,26.36,10.68,40.68Z"/>
  <path class="st1" d="M395.32,147.78l-78.64.09c-1.4,5.97-1.35,11.94-.31,19.05l103.09.14c.39,13.54.5,25.26-.38,38h-161.27s.1-147.24.1-147.24h156.07s.09,36.63.09,36.63l-97.2.2c-1.92,5.38-1.83,11.07.04,16.57l78.09.13.31,36.43Z"/>
  <polygon class="st0" points="562.47 57.81 627.49 57.9 559.84 204.79 499.06 205.01 434.23 58.21 499.39 57.7 530.05 151.81 562.47 57.81"/>
  <polygon class="st1" points="1319.49 161.39 1319.47 205.05 1198.77 204.83 1198.45 58.05 1252.52 57.85 1252.97 161.41 1319.49 161.39"/>
  <polygon class="st1" points="1181.7 161.58 1181.48 205.07 1061.16 205.03 1061.24 57.78 1113.55 57.96 1113.56 161.18 1181.7 161.58"/>
  <path class="st2" d="M762.21,106.65c4.72,20.66-44.42,12.51-56.13,13.97l-.03-24.64,44.63.44c5.24.05,10.57,6.01,11.53,10.24Z"/>
  <path class="st1" d="M1036.43,108.26c-5.31-24.12-24.04-39.66-46.62-47.7-17.67-6.29-34.37-5.32-53.5-5.69-28.32-.56-58.53,3.76-78.47,25.73-19.56,21.56-21.82,53.31-12.57,80.76,16.45,48.87,85.05,51.68,128.26,44.65,22.69-3.69,43.39-13.87,55.19-33.02,11.92-19.34,12.5-42.99,7.71-64.72ZM967.57,160.27c-7.12,7.64-16.14,9.57-27.75,10.02-16.6.64-31.2-7.83-35.34-23.54-2.74-10.42-2.7-20.07-.03-30.47,3.94-15.34,17.82-23.7,33.44-23.5,11.71.15,22.22,1.4,30.25,10.45,11.97,13.5,12.17,43.37-.57,57.04Z"/>
</svg>